<svg xmlns="http://www.w3.org/2000/svg" viewBox="0 0 64 64"><path d="M4 52H60V58H4Z M9 49L18 44H46L55 49Z M20.026666666666664 20.64H22.666666666666664V30.68H20.026666666666664Z M20.026666666666664 33.32H22.666666666666664V43.36H20.026666666666664Z M27.306666666666665 18H36.69333333333333V20.64H27.306666666666665Z M27.306666666666665 43.36H36.69333333333333V46.0H27.306666666666665Z M24.666666666666664 20.64H27.306666666666665V30.68H24.666666666666664Z M36.69333333333333 20.64H39.33333333333333V30.68H36.69333333333333Z M24.666666666666664 33.32H27.306666666666665V43.36H24.666666666666664Z M36.69333333333333 33.32H39.33333333333333V43.36H36.69333333333333Z M43.97333333333333 18H53.36V20.64H43.97333333333333Z M43.97333333333333 43.36H53.36V46.0H43.97333333333333Z M41.33333333333333 20.64H43.97333333333333V30.68H41.33333333333333Z M53.35999999999999 20.64H55.99999999999999V30.68H53.35999999999999Z M41.33333333333333 33.32H43.97333333333333V43.36H41.33333333333333Z M53.35999999999999 33.32H55.99999999999999V43.36H53.35999999999999Z"/></svg>
